<svg xmlns="http://www.w3.org/2000/svg" width="177" height="56" viewBox="0 0 177 56">
                                    <title>Travel + Leisure</title>
                                    <g fill="#000" fill-rule="nonzero">
                                        <path d="M149.945 13.9h12.084v11.933h2.236V13.9h12.117v-2h-12.117V.3h-2.236v11.6h-12.084zM107.018 55.767c-6.943 0-11.617-4-11.617-10V29.6h6.142v16.167c0 3.433 2.938 4.666 5.475 4.666 3.405 0 5.541-1.8 5.541-4.666V29.6h6.142v16.167c0 6.066-4.573 10-11.683 10M79.713 55.767c-5.208 0-9.748-1.634-13.82-4.967l-.267-.2 3.505-4.233.267.2c2.37 1.9 5.708 4.1 10.381 4.1 2.47 0 5.308-.834 5.308-3.2 0-2.034-2.103-2.567-5.942-2.9-4.807-.3-12.117-.767-12.117-7.567 0-6.033 5.474-8.167 10.582-8.167 5.04 0 9.513 1.834 11.85 3.4l.3.2-3.538 4.3-.267-.2c-.801-.6-3.839-2.6-8.479-2.6-2.103 0-4.34.7-4.34 2.7 0 1.8 2.771 2 5.709 2.234l.467.033c4.44.3 11.883.8 11.883 8 0 5.667-4.172 8.867-11.482 8.867M175.782 55h-22.165V29.6h21.297v5.367h-15.188V39.1h9.112v5.333h-9.112v5.234h16.056zM55.311 29.6h6.109V55h-6.109zM50.104 55H27.94V29.6h21.297v5.367H34.015V39.1h9.146v5.333h-9.146v5.234h16.09zM24.368 55H3.705V29.6h6.109v20.067h14.554zM139.197 40.667h-8.546v-5.8h8.178c.968 0 1.936.1 2.738.966.5.5.767 1.167.767 1.934-.033 1.633-1.368 2.9-3.137 2.9zm4.372 4.2c3.105-1.467 4.874-4.067 4.874-7.134 0-2-.768-3.9-2.136-5.333-1.803-1.867-4.306-2.8-7.678-2.8h-14.053V55h6.109v-9.1h6.843l5.007 9.1h7.01l-5.976-10.133z"></path>
                                        <path d="M155.086 25.7h-20.63V.333h6.076V20.4h14.554zM130.284 25.7h-22.165V.333h21.297V5.7h-15.188v4.133h9.113v5.334h-9.113V20.4h16.056zM93.933 25.7h-5.108L77.01.333h6.91l7.577 17.7 7.577-17.7h6.643zM15.221 25.7H9.113v-20H.133V.333h24.001V5.7h-8.913zM64.424 15.567l3.372-7.834 3.371 7.834h-6.743zM70.466.333h-5.074L53.61 25.7h6.476l2.236-5.233h11.016l2.27 5.233h6.676L70.466.333zM41.759 11.4h-8.545V5.6h8.178c.968 0 1.936.1 2.704.967.5.5.767 1.166.767 1.933.034 1.633-1.335 2.9-3.104 2.9zm4.373 4.2c3.104-1.467 4.873-4.033 4.873-7.1 0-2-.767-3.867-2.136-5.333-1.803-1.9-4.306-2.834-7.677-2.834H27.138V25.7h6.076v-9.067h6.843l5.007 9.067h6.976l-5.908-10.1z"></path>
                                    </g>
                                </svg>